<svg width="210" height="210" viewBox="0 0 210 210" fill="none" xmlns="http://www.w3.org/2000/svg">
<path d="M5 45C5 22.9 22.9 5 45 5H135V105C135 116 126 125 115 125H5V94.9" stroke="white" stroke-width="8.16949" stroke-linecap="round" stroke-linejoin="round"/>
<path d="M175 185H165C165 174 156 165 145 165C134 165 125 174 125 185H85C85 174 76 165 65 165C54 165 45 174 45 185H35C18.4 185 5 171.6 5 155V125H115C126 125 135 116 135 105V35H153.4C160.6 35 167.2 38.9001 170.8 45.1001L187.9 75H175C169.5 75 165 79.5 165 85V115C165 120.5 169.5 125 175 125H205V155" stroke="white" stroke-width="8.16949" stroke-linecap="round" stroke-linejoin="round"/>
<path d="M65.0002 205.001C76.0459 205.001 85.0002 196.047 85.0002 185.001C85.0002 173.955 76.0459 165.001 65.0002 165.001C53.9545 165.001 45.0002 173.955 45.0002 185.001C45.0002 196.047 53.9545 205.001 65.0002 205.001Z" stroke="white" stroke-width="8.16949" stroke-linecap="round" stroke-linejoin="round"/>
<path d="M145 205.001C156.046 205.001 165 196.047 165 185.001C165 173.955 156.046 165.001 145 165.001C133.954 165.001 125 173.955 125 185.001C125 196.047 133.954 205.001 145 205.001Z" stroke="white" stroke-width="8.16949" stroke-linecap="round" stroke-linejoin="round"/>
<path d="M205 104.999V124.999H175C169.5 124.999 165 120.499 165 114.999V84.999C165 79.499 169.5 74.999 175 74.999H187.9L205 104.999Z" stroke="white" stroke-width="8.16949" stroke-linecap="round" stroke-linejoin="round"/>
</svg>
