<svg width="210" height="209" viewBox="0 0 210 209" fill="none" xmlns="http://www.w3.org/2000/svg">
<path d="M106.473 61.1719H53.8263C35.2451 61.1719 31.0495 70.4626 28.7518 81.951L20.2603 122.41H140.139L131.648 81.951C129.15 70.4626 125.054 61.1719 106.473 61.1719Z" stroke="white" stroke-width="8.16124" stroke-linecap="round" stroke-linejoin="round"/>
<path d="M154.925 188.446C155.725 197.237 148.732 204.829 139.741 204.829H125.655C117.563 204.829 116.464 201.333 114.966 197.137L113.467 192.641C111.369 186.548 109.971 182.352 99.1818 182.352H60.8206C50.0315 182.352 48.4331 187.047 46.535 192.641L45.0366 197.137C43.638 201.433 42.539 204.829 34.3473 204.829H20.2614C11.2705 204.829 4.17789 197.237 5.07698 188.446L9.27264 142.792C10.3715 131.503 12.4694 122.312 32.1495 122.312H127.753C147.433 122.312 149.531 131.503 150.63 142.792L154.925 188.446Z" stroke="white" stroke-width="8.16124" stroke-linecap="round" stroke-linejoin="round"/>
<path d="M20.1599 99.9316H12.6675" stroke="white" stroke-width="8.16124" stroke-linecap="round" stroke-linejoin="round"/>
<path d="M147.532 99.9316H140.04" stroke="white" stroke-width="8.16124" stroke-linecap="round" stroke-linejoin="round"/>
<path d="M35.145 152.38H57.6223" stroke="white" stroke-width="8.16124" stroke-linecap="round" stroke-linejoin="round"/>
<path d="M102.577 152.38H125.054" stroke="white" stroke-width="8.16124" stroke-linecap="round" stroke-linejoin="round"/>
<path d="M172.108 72.3625C174.905 65.869 173.906 57.078 168.711 49.3858C163.617 41.6936 155.825 37.3979 148.732 37.4978" stroke="white" stroke-width="8.16124" stroke-linecap="round" stroke-linejoin="round"/>
<path d="M203.176 82.2501C207.372 67.1653 204.375 48.6844 193.686 32.7006C182.997 16.7167 167.013 6.9264 151.429 5.02832" stroke="white" stroke-width="8.16124" stroke-linecap="round" stroke-linejoin="round"/>
</svg>
