<svg width="100" height="100" viewBox="0 0 100 100" fill="none" xmlns="http://www.w3.org/2000/svg">
<path d="M37.578 0C30.7116 0 25.0936 5.61798 25.0936 12.4844V24.9688H1.24844C0.499376 24.9688 0.124844 25.4682 0.124844 26.0924V56.1798C0.124844 59.6754 2.87141 62.422 6.36704 62.422H93.7578C97.2534 62.422 100 59.6754 100 56.1798V26.0924C100 25.3433 99.5006 24.9688 98.8764 24.9688H75.0312V12.4844C75.0312 5.61798 69.4132 0 62.5468 0L37.578 0ZM37.578 12.4844H62.5468V24.9688H37.578V12.4844ZM0.124844 73.7828V98.7516C0.124844 99.3758 0.62422 99.8752 1.24844 99.8752H98.7516C99.3758 99.8752 99.8752 99.3758 99.8752 98.7516V73.7828C97.8776 74.5318 95.8801 74.9064 93.633 74.9064H6.2422C3.99501 74.9064 1.9975 74.407 0 73.7828H0.124844Z" fill="black"/>
</svg>
