<svg width="100" height="100" viewBox="0 0 100 100" fill="none" xmlns="http://www.w3.org/2000/svg">
<path d="M36 33H57.409C62.1523 33 66 37.4737 66 42.0048C66 46.9713 62.1523 51 57.409 51H36V33Z" stroke="#5A5F49" stroke-width="5" stroke-miterlimit="10" stroke-linecap="round" stroke-linejoin="round"/>
<path d="M51.3542 68.1431V77M39.9044 68.1431V77M51.3542 24V32.8475M39.9044 24V32.8475M44.0209 32.8475H28M44.0209 68.1431H28M35.3333 50.4953H61.5084C67.3164 50.4953 72 54.4625 72 59.3522C72 64.2371 67.3164 68.1996 61.5084 68.1996H35.3333V50.4953Z" stroke="#5A5F49" stroke-width="5" stroke-miterlimit="10" stroke-linecap="round" stroke-linejoin="round"/>
<path d="M50 97C75.9581 97 97 75.9581 97 50C97 24.0419 75.9581 3 50 3C24.0419 3 3 24.0419 3 50C3 75.9581 24.0419 97 50 97Z" stroke="#5A5F49" stroke-width="5" stroke-miterlimit="10"/>
</svg>
