<svg width="28" height="12" viewBox="0 0 28 12" fill="none" xmlns="http://www.w3.org/2000/svg">
<path d="M4.5 9C4.116 9 3.78 8.924 3.492 8.772C3.204 8.62 2.98 8.404 2.82 8.124C2.66 7.844 2.58 7.516 2.58 7.14V1.224H0.36V0.24H3.66V7.14C3.66 7.412 3.736 7.628 3.888 7.788C4.04 7.94 4.244 8.016 4.5 8.016H6.6V9H4.5ZM10.7953 9.096C10.2673 9.096 9.81131 8.996 9.42731 8.796C9.04331 8.596 8.74331 8.308 8.52731 7.932C8.31931 7.548 8.21531 7.096 8.21531 6.576V4.824C8.21531 4.296 8.31931 3.844 8.52731 3.468C8.74331 3.092 9.04331 2.804 9.42731 2.604C9.81131 2.404 10.2673 2.304 10.7953 2.304C11.3233 2.304 11.7793 2.404 12.1633 2.604C12.5473 2.804 12.8433 3.092 13.0513 3.468C13.2673 3.844 13.3753 4.292 13.3753 4.812V6.576C13.3753 7.096 13.2673 7.548 13.0513 7.932C12.8433 8.308 12.5473 8.596 12.1633 8.796C11.7793 8.996 11.3233 9.096 10.7953 9.096ZM10.7953 8.136C11.2673 8.136 11.6353 8.004 11.8993 7.74C12.1633 7.476 12.2953 7.088 12.2953 6.576V4.824C12.2953 4.312 12.1633 3.924 11.8993 3.66C11.6353 3.396 11.2673 3.264 10.7953 3.264C10.3313 3.264 9.96331 3.396 9.69131 3.66C9.42731 3.924 9.29531 4.312 9.29531 4.824V6.576C9.29531 7.088 9.42731 7.476 9.69131 7.74C9.96331 8.004 10.3313 8.136 10.7953 8.136ZM16.3226 11.16V10.176H18.4226C18.7586 10.176 19.0026 10.1 19.1546 9.948C19.3146 9.796 19.3946 9.56 19.3946 9.24V8.4L19.4186 7.2H19.2026L19.4066 7.02C19.4066 7.5 19.2466 7.88 18.9266 8.16C18.6066 8.44 18.1786 8.58 17.6426 8.58C16.9626 8.58 16.4266 8.36 16.0346 7.92C15.6426 7.472 15.4466 6.872 15.4466 6.12V4.728C15.4466 3.976 15.6426 3.38 16.0346 2.94C16.4266 2.5 16.9626 2.28 17.6426 2.28C18.1786 2.28 18.6066 2.42 18.9266 2.7C19.2466 2.98 19.4066 3.36 19.4066 3.84L19.2026 3.66H19.4066V2.4H20.4746V9.24C20.4746 9.832 20.2906 10.3 19.9226 10.644C19.5626 10.988 19.0586 11.16 18.4106 11.16H16.3226ZM17.9666 7.644C18.4146 7.644 18.7666 7.504 19.0226 7.224C19.2786 6.944 19.4066 6.556 19.4066 6.06V4.8C19.4066 4.304 19.2786 3.916 19.0226 3.636C18.7666 3.356 18.4146 3.216 17.9666 3.216C17.5106 3.216 17.1546 3.352 16.8986 3.624C16.6506 3.896 16.5266 4.288 16.5266 4.8V6.06C16.5266 6.572 16.6506 6.964 16.8986 7.236C17.1546 7.508 17.5106 7.644 17.9666 7.644ZM25.1859 9.096C24.6579 9.096 24.2019 8.996 23.8179 8.796C23.4339 8.596 23.1339 8.308 22.9179 7.932C22.7099 7.548 22.6059 7.096 22.6059 6.576V4.824C22.6059 4.296 22.7099 3.844 22.9179 3.468C23.1339 3.092 23.4339 2.804 23.8179 2.604C24.2019 2.404 24.6579 2.304 25.1859 2.304C25.7139 2.304 26.1699 2.404 26.5539 2.604C26.9379 2.804 27.2339 3.092 27.4419 3.468C27.6579 3.844 27.7659 4.292 27.7659 4.812V6.576C27.7659 7.096 27.6579 7.548 27.4419 7.932C27.2339 8.308 26.9379 8.596 26.5539 8.796C26.1699 8.996 25.7139 9.096 25.1859 9.096ZM25.1859 8.136C25.6579 8.136 26.0259 8.004 26.2899 7.74C26.5539 7.476 26.6859 7.088 26.6859 6.576V4.824C26.6859 4.312 26.5539 3.924 26.2899 3.66C26.0259 3.396 25.6579 3.264 25.1859 3.264C24.7219 3.264 24.3539 3.396 24.0819 3.66C23.8179 3.924 23.6859 4.312 23.6859 4.824V6.576C23.6859 7.088 23.8179 7.476 24.0819 7.74C24.3539 8.004 24.7219 8.136 25.1859 8.136Z" fill="#828282"/>
</svg>
