<svg width="100" height="101" viewBox="0 0 100 101" fill="none" xmlns="http://www.w3.org/2000/svg">
<path d="M68.75 0C62.375 0 56.875 4.375 53.5 11C59.125 17.75 62.5 27 62.5 37.625C62.5 41.25 62.125 44.5 61.375 47.75C63.75 49.125 66.125 50.125 68.75 50.125C79.125 50.125 87.5 38.875 87.5 25.125C87.5 11.375 79.125 0.125 68.75 0.125V0ZM31.25 12.5C20.875 12.5 12.5 23.75 12.5 37.5C12.5 51.25 20.875 62.5 31.25 62.5C41.625 62.5 50 51.25 50 37.5C50 23.75 41.625 12.5 31.25 12.5ZM90.625 52C85.25 58.375 77.875 62.25 69.5 62.5C72.875 67.25 75 73 75 79.25V87.5H100V66.75C100 60.25 96.125 54.625 90.625 51.875V52ZM9.375 64.5C3.875 67.25 0 72.875 0 79.375V100.125H62.5V79.375C62.5 72.875 58.625 67.25 53.125 64.5C47.5 71.125 39.875 75 31.25 75C22.625 75 15 71 9.375 64.5Z" fill="black"/>
</svg>
